<?xml version="1.0" encoding="UTF-8" standalone="no"?>
<!DOCTYPE svg PUBLIC "-//W3C//DTD SVG 20010904//EN"
              "http://www.w3.org/TR/2001/REC-SVG-20010904/DTD/svg10.dtd">

<svg xmlns="http://www.w3.org/2000/svg"
     width="162.56mm" height="91.4402mm"
     viewBox="0 0 1920 1080">
  <path id="Selection #1"
        fill="none" stroke="black" stroke-width="1"
        d="M 940.00,20.14
           C 935.47,21.07 934.45,20.98 930.00,21.00
             930.00,21.00 919.00,21.91 919.00,21.91
             919.00,21.91 891.00,24.17 891.00,24.17
             856.90,27.58 820.35,33.97 787.00,41.88
             630.13,79.09 477.50,165.06 388.69,303.00
             359.18,348.84 336.29,403.24 326.58,457.00
             323.68,473.05 320.03,495.94 320.00,512.00
             320.00,512.00 320.00,552.00 320.00,552.00
             320.00,552.00 320.91,564.00 320.91,564.00
             323.44,600.14 331.55,635.88 343.69,670.00
             411.03,859.23 603.84,981.65 793.00,1023.42
             828.16,1031.19 860.16,1036.58 896.00,1040.17
             896.00,1040.17 919.00,1042.09 919.00,1042.09
             919.00,1042.09 929.00,1043.00 929.00,1043.00
             929.00,1043.00 948.00,1044.00 948.00,1044.00
             948.00,1044.00 1014.00,1044.00 1014.00,1044.00
             1014.00,1044.00 1029.00,1043.00 1029.00,1043.00
             1029.00,1043.00 1055.00,1041.17 1055.00,1041.17
             1093.18,1037.47 1130.53,1032.13 1168.00,1023.65
             1337.19,985.35 1505.66,888.16 1590.31,732.00
             1612.02,691.95 1627.22,650.83 1635.61,606.00
             1638.38,591.20 1641.98,566.73 1642.00,552.00
             1642.00,552.00 1642.00,512.00 1642.00,512.00
             1642.00,512.00 1641.09,500.00 1641.09,500.00
             1638.56,463.86 1630.45,428.12 1618.31,394.00
             1550.97,204.77 1358.16,82.35 1169.00,40.58
             1130.32,32.03 1094.37,26.64 1055.00,22.83
             1055.00,22.83 1030.00,21.00 1030.00,21.00
             1030.00,21.00 1014.00,20.14 1014.00,20.14
             1014.00,20.14 967.00,20.14 967.00,20.14
             967.00,20.14 940.00,20.14 940.00,20.14 Z
           M 894.00,346.00
           C 894.00,346.00 1003.42,473.00 1003.42,473.00
             1003.42,473.00 1040.43,516.00 1040.43,516.00
             1040.43,516.00 1057.00,536.00 1057.00,536.00
             1057.00,536.00 1052.00,536.00 1052.00,536.00
             1052.00,536.00 1063.65,583.00 1063.65,583.00
             1063.65,583.00 1073.87,624.00 1073.87,624.00
             1073.87,624.00 1111.65,776.00 1111.65,776.00
             1111.65,776.00 1133.37,863.00 1133.37,863.00
             1133.37,863.00 1144.00,907.00 1144.00,907.00
             1144.00,907.00 1167.87,812.00 1167.87,812.00
             1167.87,812.00 1215.87,619.00 1215.87,619.00
             1215.87,619.00 1232.63,552.00 1232.63,552.00
             1232.63,552.00 1236.12,538.00 1236.12,538.00
             1236.12,538.00 1238.58,532.02 1238.58,532.02
             1238.58,532.02 1246.00,531.00 1246.00,531.00
             1246.00,531.00 1298.00,531.00 1298.00,531.00
             1298.00,531.00 1275.12,619.00 1275.12,619.00
             1275.12,619.00 1232.88,781.00 1232.88,781.00
             1232.88,781.00 1209.01,873.00 1209.01,873.00
             1209.01,873.00 1188.15,953.00 1188.15,953.00
             1188.15,953.00 1184.13,969.00 1184.13,969.00
             1184.13,969.00 1181.28,976.01 1181.28,976.01
             1181.28,976.01 1174.00,977.00 1174.00,977.00
             1174.00,977.00 1117.00,977.00 1117.00,977.00
             1117.00,977.00 1111.56,975.98 1111.56,975.98
             1111.56,975.98 1105.42,957.00 1105.42,957.00
             1105.42,957.00 1089.13,892.00 1089.13,892.00
             1089.13,892.00 1042.53,708.00 1042.53,708.00
             1042.53,708.00 1026.63,645.00 1026.63,645.00
             1026.63,645.00 1018.00,611.00 1018.00,611.00
             1018.00,611.00 1010.13,641.00 1010.13,641.00
             1010.13,641.00 995.13,702.00 995.13,702.00
             995.13,702.00 948.37,891.00 948.37,891.00
             948.37,891.00 932.12,957.00 932.12,957.00
             932.12,957.00 926.28,976.01 926.28,976.01
             926.28,976.01 919.00,977.00 919.00,977.00
             919.00,977.00 857.00,977.00 857.00,977.00
             857.00,977.00 849.37,948.00 849.37,948.00
             849.37,948.00 826.88,863.00 826.88,863.00
             826.88,863.00 772.85,658.00 772.85,658.00
             772.85,658.00 751.12,576.00 751.12,576.00
             751.12,576.00 741.00,536.00 741.00,536.00
             741.00,536.00 695.00,536.00 695.00,536.00
             695.00,536.00 695.00,100.00 695.00,100.00
             695.00,100.00 812.00,100.00 812.00,100.00
             854.24,100.00 893.43,99.78 931.00,122.45
             946.55,131.83 962.55,147.68 970.73,164.00
             988.57,199.60 984.89,256.27 964.09,290.00
             946.84,317.97 923.58,333.46 894.00,346.00 Z
           M 754.00,150.00
           C 754.00,150.00 754.00,315.00 754.00,315.00
             754.00,315.00 807.00,315.00 807.00,315.00
             807.00,315.00 823.00,314.00 823.00,314.00
             842.79,313.97 866.98,310.52 884.00,299.94
             906.57,285.90 919.69,260.43 920.00,234.00
             920.26,211.61 920.04,191.28 902.91,174.09
             898.45,169.61 892.50,165.55 887.00,162.43
             874.59,155.36 853.28,151.17 839.00,150.96
             839.00,150.96 826.00,150.96 826.00,150.96
             826.00,150.96 814.00,150.00 814.00,150.00
             814.00,150.00 754.00,150.00 754.00,150.00 Z
           M 754.00,363.00
           C 754.00,363.00 754.00,531.00 754.00,531.00
             754.00,531.00 793.00,531.00 793.00,531.00
             795.17,531.00 798.75,530.78 800.57,532.02
             803.48,534.01 806.14,548.05 807.13,552.00
             807.13,552.00 823.42,617.00 823.42,617.00
             823.42,617.00 844.87,702.00 844.87,702.00
             844.87,702.00 872.63,811.00 872.63,811.00
             872.63,811.00 887.13,869.00 887.13,869.00
             887.13,869.00 896.00,902.00 896.00,902.00
             896.00,902.00 900.37,887.00 900.37,887.00
             900.37,887.00 907.37,859.00 907.37,859.00
             907.37,859.00 929.37,770.00 929.37,770.00
             929.37,770.00 956.13,663.00 956.13,663.00
             956.13,663.00 965.88,623.00 965.88,623.00
             965.88,623.00 979.37,569.00 979.37,569.00
             979.37,569.00 987.00,536.00 987.00,536.00
             987.00,536.00 981.09,534.98 981.09,534.98
             981.09,534.98 963.92,516.00 963.92,516.00
             963.92,516.00 912.58,455.00 912.58,455.00
             912.58,455.00 854.27,386.00 854.27,386.00
             854.27,386.00 834.83,364.02 834.83,364.02
             834.83,364.02 827.00,363.00 827.00,363.00
             827.00,363.00 754.00,363.00 754.00,363.00 Z" />
</svg>
